<svg width="170" height="185" viewBox="0 0 170 185" fill="none" xmlns="http://www.w3.org/2000/svg">
<path d="M137.91 57.71C135.45 56.29 132.43 56.29 129.97 57.71L85.18 83.57L52.3 64.59L85.18 45.61L100.51 54.46C104.31 56.65 109.16 55.35 111.35 51.55C113.54 47.75 112.24 42.9 108.44 40.71L89.15 29.57C86.69 28.15 83.67 28.15 81.21 29.57L32.45 57.72C29.99 59.14 28.48 61.76 28.48 64.59C28.48 67.42 29.99 70.05 32.45 71.46L77.24 97.32V135.29L44.36 116.3V103.42C44.36 99.04 40.81 95.48 36.42 95.48C32.03 95.48 28.48 99.03 28.48 103.42V120.88C28.48 123.72 29.99 126.34 32.45 127.75L81.21 155.9C82.44 156.61 83.81 156.96 85.18 156.96C86.55 156.96 87.92 156.61 89.15 155.9L137.91 127.75C140.37 126.33 141.88 123.71 141.88 120.88V64.58C141.88 61.74 140.37 59.12 137.91 57.71ZM126.01 116.3L93.13 135.29V97.32L126.01 78.33V116.3Z" fill="#35B597"/>
</svg>
