<svg width="200" height="206" viewBox="0 0 200 206" fill="none" xmlns="http://www.w3.org/2000/svg">
<path d="M40.6268 157.824C39.4647 157.824 38.373 157.272 37.927 155.91C36.9762 152.905 35.368 149.865 33.8303 147.47C33.5603 147.06 33.4546 146.613 33.4546 146.167C33.4546 144.489 35.1567 142.892 36.9409 142.892C37.7979 142.892 38.643 143.268 39.3356 144.16C41.4133 146.966 44.2892 153.48 44.2892 154.819C44.2892 156.556 42.3759 157.824 40.6386 157.824H40.6268ZM61.4156 146.073C60.6644 155.875 56.6733 167.179 42.6341 171.452C42.188 171.593 41.7772 171.652 41.4016 171.652C39.3473 171.652 38.1617 169.95 38.1617 168.306C38.1617 167.144 38.7721 166.017 40.1103 165.606C51.7197 161.956 54.0791 153.375 54.9947 145.487C55.1943 143.749 56.6733 142.928 58.1406 142.928C59.784 142.928 61.4156 143.914 61.4156 145.792V146.062V146.073Z" fill="#485157"/>
<path d="M71.8042 143.655C71.8042 141.977 73.4476 141.132 75.044 141.132C76.6404 141.132 78.2838 141.988 78.2838 143.655V149.255C82.9675 150.581 88.0502 152.401 93.4851 155.159C94.612 155.734 95.0933 156.767 95.0933 157.824C95.0933 159.502 93.8608 161.275 92.1939 161.275C91.7479 161.275 91.3018 161.169 90.8323 160.899C86.4655 158.469 81.8875 156.662 78.2956 155.57V169.163C78.2956 171.006 76.7226 171.898 75.1145 171.898C73.5063 171.898 71.8042 170.983 71.8042 169.163V143.655Z" fill="#485157"/>
<path d="M102.512 171.076C100.704 171.076 98.9318 169.574 98.9318 167.731C98.9318 167.121 99.1313 166.428 99.6126 165.782C103.639 160.324 106.714 153.152 108.053 146.073C108.358 144.395 109.755 143.644 111.163 143.644C112.736 143.644 114.309 144.594 114.309 146.273C114.309 146.989 111.856 159.866 105.118 169.633C104.437 170.619 103.475 171.065 102.524 171.065L102.512 171.076ZM127.891 171.147C126.658 171.147 125.496 170.466 125.062 168.717C123.148 160.97 120.754 154.032 117.408 147.682C117.197 147.271 117.103 146.86 117.103 146.449C117.103 144.841 118.84 143.679 120.519 143.679C121.434 143.679 122.362 144.054 122.843 145.005C128.959 156.826 131.588 166.346 131.588 167.649C131.588 169.668 129.675 171.135 127.902 171.135L127.891 171.147ZM127.75 149.56C127.139 149.56 126.482 149.255 126.012 148.503C125.226 147.236 124.674 146.426 123.794 145.264C123.524 144.923 123.418 144.547 123.418 144.207C123.418 143.221 124.31 142.364 125.296 142.364C125.778 142.364 126.247 142.575 126.658 143.01C129.593 146.355 129.733 147.283 129.733 147.717C129.733 148.738 128.783 149.56 127.75 149.56ZM129.733 145.768C129.182 144.911 128.125 143.55 127.656 142.998C127.28 142.587 127.104 142.176 127.104 141.801C127.104 140.873 127.996 140.193 128.912 140.193C129.827 140.193 130.45 140.744 132.668 143.843C132.903 144.184 133.009 144.559 133.009 144.9C133.009 145.886 132.187 146.743 131.271 146.743C130.72 146.743 130.18 146.473 129.733 145.757V145.768Z" fill="#485157"/>
<path d="M142.681 170.149C140.944 170.149 140.087 168.611 140.087 167.074C140.087 165.536 140.944 164.033 142.681 164.033H160.336V149.114H142.54C140.897 149.114 140.087 147.682 140.087 146.214C140.087 144.747 140.909 143.35 142.54 143.35H163.094C164.902 143.35 166.545 145.052 166.545 146.942V166.51C166.545 168.529 165.113 170.161 163.094 170.161H142.669L142.681 170.149Z" fill="#485157"/>
<path d="M139.206 54.9126C137.399 53.8678 135.18 53.8678 133.372 54.9126L100.47 73.9054L76.3118 59.9601L100.47 46.0148L111.727 52.5179C114.52 54.1261 118.077 53.1753 119.685 50.3815C121.294 47.5878 120.343 44.031 117.549 42.4228L103.381 34.2411C101.573 33.1964 99.3544 33.1964 97.5467 34.2411L61.7326 54.9126C59.9249 55.9573 58.8215 57.8824 58.8215 59.9601C58.8215 62.0378 59.9366 63.9629 61.7326 65.0076L94.6355 84.0005V111.891L70.4778 97.9458V88.4846C70.4778 85.2682 67.8718 82.6506 64.6437 82.6506C61.4157 82.6506 58.8097 85.2565 58.8097 88.4846V101.315C58.8097 103.392 59.9249 105.318 61.7209 106.362L97.5349 127.034C98.4388 127.55 99.4483 127.82 100.446 127.82C101.444 127.82 102.465 127.562 103.357 127.034L139.171 106.362C140.979 105.318 142.082 103.392 142.082 101.315V59.9601C142.082 57.8824 140.967 55.9573 139.171 54.9126H139.206ZM130.461 97.9458L106.304 111.891V84.0005L130.461 70.0552V97.9458Z" fill="#35B597"/>
</svg>
